<svg width="48" height="48" viewBox="0 0 48 48" fill="none" xmlns="http://www.w3.org/2000/svg">
<path d="M47.9825 24C47.9825 37.2548 37.2413 48 23.9913 48C10.7413 48 0 37.2548 0 24C0 10.7452 10.7413 0 23.9913 0C37.2413 0 47.9825 10.7452 47.9825 24Z" fill="url(#paint0_linear_157_1668)"/>
<path fill-rule="evenodd" clip-rule="evenodd" d="M32.6881 12C31.4183 12 30.389 13.0293 30.389 14.2991V33.7008C30.389 34.9706 31.4183 36 32.6881 36C33.9579 36 34.9873 34.9706 34.9873 33.7008V14.2991C34.9873 13.0293 33.9579 12 32.6881 12ZM12.9951 14.2992C12.9951 13.0294 14.0245 12 15.2943 12C16.5641 12 17.5934 13.0294 17.5934 14.2992V33.7008C17.5934 34.9706 16.5641 36 15.2943 36C14.0245 36 12.9951 34.9706 12.9951 33.7008V14.2992ZM21.5921 20.3991C21.5921 19.0741 22.6662 18 23.9912 18C25.3162 18 26.3904 19.0741 26.3904 20.3991V27.6009C26.3904 28.9259 25.3162 30 23.9912 30C22.6662 30 21.5921 28.9259 21.5921 27.6009V20.3991Z" fill="#010C07"/>
<defs>
<linearGradient id="paint0_linear_157_1668" x1="6.79753" y1="-1.87755e-07" x2="40.8001" y2="41.9879" gradientUnits="userSpaceOnUse">
<stop stop-color="#ccccc1"/>
<stop offset="1" stop-color="#ccccc1"/>
</linearGradient>
</defs>
</svg>
