<svg xmlns="http://www.w3.org/2000/svg" width="696" height="51" viewBox="0 0 696 51" fill="none"><path d="M118.035 11.3059C115.545 6.05131 110.471 2.41086 104.753 1.98156C101.954 1.72398 99.0601 2.19621 96.5272 3.46693C94.8272 4.30836 93.3161 5.47605 92.054 6.87556C89.4352 3.90481 85.7347 1.9558 81.7422 1.74974C73.3366 1.24317 66.0986 6.68667 64.3385 15.1352C63.2652 20.1924 64.4329 25.4813 66.7511 29.9289C69.0693 34.3163 72.4436 38.2229 76.8396 40.5153C79.9048 42.0093 82.7811 38.2143 80.5402 35.5698C79.8276 34.7713 79.1664 33.9127 78.5654 33.0026C78.0073 32.1612 77.5093 31.2683 77.0543 30.3582C75.7922 27.7652 74.8477 24.846 74.6588 21.9697C74.5472 20.1409 74.7876 18.5696 75.5432 16.9726C76.2644 15.4873 77.4235 14.2165 78.9518 13.6155C81.3215 12.714 83.8029 13.1948 85.6059 15.1438C86.7822 16.3545 87.3145 18.0459 87.9155 19.6085C87.9585 19.7201 88.01 19.8318 88.0615 19.9348C89.2549 23.6182 94.7156 23.7126 95.7373 19.5227C95.7717 19.3767 95.7974 19.2393 95.8318 19.0934L95.8489 19.0247C95.8489 19.0247 95.8575 18.9818 95.8661 18.956C95.952 18.5782 96.055 18.209 96.1838 17.857C96.5873 16.7322 97.2656 15.6504 98.0813 14.8176C99.3091 13.5726 100.863 12.817 102.58 12.9802C103.533 13.0317 104.615 13.2979 105.397 13.7186C109.758 16.0883 109.303 22.3131 107.431 26.4172C106.118 29.2935 104.014 31.6976 101.679 33.7754C101.104 34.2905 100.442 34.8486 99.8414 35.3294C97.1025 37.4587 96.407 41.4856 98.5707 44.3704C100.889 47.5472 105.508 47.7018 108.161 44.877C108.685 44.3618 109.183 43.8295 109.681 43.2886C114.687 37.6906 119.237 29.3794 119.941 21.7207C120.233 18.1403 119.598 14.56 118.026 11.3059H118.035Z" fill="url(#paint0_radial_94_3251)"></path><path d="M152.904 15.4698C154.956 15.4698 156.604 16.1224 157.849 17.436C159.094 18.7497 159.712 20.4926 159.712 22.6735V33.363H154.338V23.1285C154.338 22.2442 154.114 21.5487 153.677 21.0421C153.239 20.5356 152.595 20.278 151.762 20.278C150.878 20.278 150.191 20.5699 149.701 21.1452C149.212 21.729 148.963 22.5275 148.963 23.5492V33.3716H143.588V23.1371C143.588 22.2528 143.365 21.5573 142.927 21.0507C142.489 20.5441 141.845 20.2866 141.012 20.2866C140.128 20.2866 139.441 20.5785 138.952 21.1538C138.462 21.7376 138.213 22.5361 138.213 23.5578V33.3802H132.838V15.9592H138.213V17.5648C139.192 16.1739 140.789 15.4784 143.013 15.4784C145.091 15.4784 146.653 16.2426 147.709 17.7795C148.808 16.2512 150.543 15.4784 152.904 15.4784V15.4698Z" fill="#396993"></path><path d="M178.55 31.1911C176.713 32.9684 174.463 33.8528 171.819 33.8528C169.174 33.8528 166.925 32.9684 165.087 31.1911C163.25 29.4138 162.331 27.2416 162.331 24.6572C162.331 22.0729 163.25 19.9006 165.087 18.1233C166.925 16.346 169.174 15.4617 171.819 15.4617C174.463 15.4617 176.713 16.346 178.55 18.1233C180.388 19.9006 181.306 22.0729 181.306 24.6572C181.306 27.2416 180.388 29.4138 178.55 31.1911ZM168.874 27.6194C169.664 28.3835 170.643 28.7699 171.81 28.7699C172.978 28.7699 173.957 28.3835 174.747 27.6194C175.537 26.8552 175.932 25.8679 175.932 24.6572C175.932 23.4466 175.537 22.4592 174.747 21.6951C173.957 20.9309 172.978 20.5446 171.81 20.5446C170.643 20.5446 169.664 20.9309 168.874 21.6951C168.084 22.4592 167.689 23.4466 167.689 24.6572C167.689 25.8679 168.084 26.8552 168.874 27.6194Z" fill="#396993"></path><path d="M189.412 33.3724H183.703V15.8656H189.129V20.0899C189.988 16.8616 192.254 15.4277 194.409 15.4277C195.131 15.4277 195.92 15.4621 196.891 15.9085L195.491 21.4121C194.306 20.9743 193.448 20.9743 192.907 20.9743C190.752 20.9743 189.421 22.2192 189.421 27.3622V33.3896L189.412 33.3724Z" fill="#396993"></path><path d="M211.126 15.9598H216.501V33.3721H211.126V31.3115C210.448 33.063 208.078 33.8615 205.786 33.8615C203.493 33.8615 201.407 32.9772 199.733 31.1999C198.058 29.4226 197.225 27.2504 197.225 24.666C197.225 22.0816 198.058 19.9094 199.733 18.1321C201.407 16.3548 203.424 15.4275 205.786 15.4704C209.864 15.5391 211.221 17.4881 211.126 18.4583V15.9512V15.9598ZM203.785 27.7655C204.575 28.5297 205.597 28.916 206.867 28.916C208.138 28.916 209.16 28.5297 209.95 27.7655C210.74 27.0014 211.135 25.9625 211.135 24.666C211.135 23.3695 210.74 22.3306 209.95 21.5664C209.16 20.8023 208.138 20.4159 206.867 20.4159C205.597 20.4159 204.575 20.8023 203.785 21.5664C202.995 22.3306 202.6 23.3695 202.6 24.666C202.6 25.9625 202.995 27.0014 203.785 27.7655Z" fill="#396993"></path><path d="M220.468 33.372V7.94897H225.843V33.372H220.468Z" fill="#396993"></path><path d="M234.848 13.5044C234.212 14.1226 233.457 14.4231 232.573 14.4231C231.688 14.4231 230.933 14.114 230.297 13.5044C229.662 12.8863 229.353 12.1479 229.353 11.2893C229.353 10.4307 229.671 9.69228 230.297 9.07409C230.933 8.4559 231.688 8.1554 232.573 8.1554C233.457 8.1554 234.212 8.46449 234.848 9.07409C235.483 9.69228 235.792 10.4307 235.792 11.2893C235.792 12.1479 235.475 12.8863 234.848 13.5044ZM229.885 33.3724V15.96H235.26V33.3724H229.885Z" fill="#396993"></path><path d="M244.292 21.0425C244.292 21.3946 244.601 21.6779 245.202 21.8926C245.811 22.1158 246.541 22.3304 247.408 22.5537C248.267 22.7769 249.126 23.0602 249.984 23.4037C250.843 23.7557 251.581 24.3224 252.191 25.1295C252.8 25.928 253.101 26.9325 253.101 28.1431C253.101 30.0235 252.38 31.4487 250.954 32.4103C249.521 33.372 247.752 33.8528 245.657 33.8528C241.879 33.8528 239.32 32.4704 237.955 29.7058L242.609 27.13C243.09 28.5037 244.103 29.182 245.657 29.182C246.945 29.182 247.589 28.8214 247.589 28.1002C247.589 27.7482 247.28 27.4648 246.679 27.233C246.069 27.0012 245.339 26.778 244.472 26.5547C243.613 26.3315 242.755 26.0482 241.896 25.6875C241.038 25.3269 240.299 24.7688 239.69 23.9961C239.08 23.232 238.78 22.2875 238.78 21.1713C238.78 19.3597 239.458 17.9516 240.806 16.9556C242.154 15.9597 243.819 15.4617 245.803 15.4617C247.288 15.4617 248.636 15.7793 249.847 16.4233C251.066 17.0587 252.045 17.9859 252.783 19.188L248.198 21.592C247.623 20.5703 246.825 20.0637 245.794 20.0637C244.764 20.0637 244.292 20.39 244.292 21.0425Z" fill="#396993"></path><path d="M287.445 16.3132L305.767 34.6357" stroke="#396993" stroke-width="1.29648" stroke-miterlimit="10"></path><path d="M305.767 16.3132L287.445 34.6357" stroke="#396993" stroke-width="1.29648" stroke-miterlimit="10"></path><g clip-path="url(#clip0_94_3251)"><path d="M375.791 13.7204H377.404L382.001 9.12336L382.227 7.17164C379.594 4.84723 376.411 3.23255 372.98 2.48012C369.549 1.72769 365.983 1.86235 362.618 2.87138C359.254 3.88041 356.202 5.7305 353.751 8.24688C351.301 10.7633 349.532 13.8629 348.612 17.2529C349.124 17.043 349.692 17.0089 350.225 17.1561L359.419 15.6399C359.419 15.6399 359.887 14.8656 360.129 14.914C362.099 12.7505 364.822 11.4217 367.739 11.1998C370.657 10.9779 373.549 11.8797 375.824 13.7204H375.791Z" fill="#EA4335"></path><path d="M388.55 17.253C387.494 13.3618 385.324 9.86374 382.308 7.18787L375.856 13.6399C377.201 14.7386 378.278 16.1283 379.008 17.7042C379.737 19.2801 380.099 21.001 380.066 22.7372V23.8824C380.82 23.8824 381.567 24.0309 382.263 24.3195C382.96 24.6081 383.593 25.031 384.126 25.5643C384.66 26.0975 385.083 26.7305 385.371 27.4272C385.66 28.1239 385.808 28.8706 385.808 29.6247C385.808 30.3788 385.66 31.1255 385.371 31.8221C385.083 32.5188 384.66 33.1518 384.126 33.6851C383.593 34.2183 382.96 34.6413 382.263 34.9298C381.567 35.2184 380.82 35.3669 380.066 35.3669H368.581L367.436 36.5283V43.4158L368.581 44.561H380.066C383.273 44.586 386.403 43.578 388.993 41.6863C391.582 39.7945 393.494 37.1195 394.446 34.0567C395.398 30.994 395.338 27.7064 394.276 24.6801C393.215 21.6539 391.207 19.0498 388.55 17.253Z" fill="#4285F4"></path><path d="M357.081 44.4965H368.565V35.3024H357.081C356.262 35.3022 355.454 35.1262 354.71 34.7863L353.097 35.2863L348.467 39.8833L348.064 41.4963C350.66 43.4566 353.828 44.5106 357.081 44.4965Z" fill="#34A853"></path><path d="M357.081 14.6722C353.969 14.6908 350.941 15.6808 348.419 17.504C345.897 19.3272 344.008 21.8925 343.014 24.8415C342.021 27.7906 341.974 30.9763 342.879 33.9535C343.785 36.9307 345.597 39.5509 348.064 41.448L354.726 34.7863C353.879 34.4038 353.138 33.8217 352.566 33.0898C351.994 32.3579 351.608 31.4982 351.441 30.5843C351.274 29.6705 351.331 28.7298 351.608 27.843C351.885 26.9562 352.373 26.1498 353.029 25.4929C353.686 24.8361 354.493 24.3484 355.38 24.0717C356.266 23.795 357.207 23.7376 358.121 23.9044C359.035 24.0712 359.894 24.4572 360.626 25.0293C361.358 25.6014 361.94 26.3425 362.323 27.1891L368.984 20.5274C367.586 18.6995 365.784 17.2198 363.719 16.204C361.654 15.1883 359.382 14.664 357.081 14.6722Z" fill="#FBBC05"></path><path d="M425.698 38.0769C423.72 38.102 421.758 37.7279 419.929 36.9768C418.1 36.2257 416.441 35.1131 415.052 33.7056C413.619 32.3579 412.482 30.7271 411.713 28.9167C410.944 27.1063 410.559 25.1558 410.584 23.1889C410.56 21.2221 410.945 19.2719 411.714 17.4616C412.483 15.6514 413.62 14.0205 415.052 12.6721C416.434 11.2501 418.09 10.1226 419.919 9.3575C421.749 8.5924 423.715 8.20555 425.698 8.22026C427.587 8.19508 429.463 8.54573 431.216 9.25185C432.968 9.95796 434.563 11.0054 435.908 12.3334L433.037 15.2529C431.07 13.3527 428.432 12.3088 425.698 12.3495C424.279 12.3321 422.873 12.6099 421.568 13.1653C420.263 13.7207 419.087 14.5415 418.116 15.5755C417.108 16.5765 416.312 17.7714 415.777 19.0881C415.242 20.4048 414.979 21.8162 415.003 23.2373C414.992 24.6421 415.261 26.0351 415.796 27.3343C416.33 28.6335 417.119 29.8126 418.116 30.8022C420.114 32.7928 422.809 33.9252 425.629 33.9584C428.449 33.9915 431.17 32.9228 433.214 30.9797C434.479 29.5941 435.256 27.832 435.424 25.9632H425.746V21.834H439.44C439.575 22.6656 439.629 23.5082 439.602 24.3502C439.687 26.0929 439.418 27.8348 438.81 29.4705C438.203 31.1063 437.271 32.6019 436.069 33.8669C434.733 35.2579 433.119 36.3517 431.332 37.0771C429.545 37.8025 427.625 38.1431 425.698 38.0769ZM457.538 35.3348C455.7 37.0964 453.253 38.08 450.707 38.08C448.161 38.08 445.714 37.0964 443.876 35.3348C442.961 34.4478 442.241 33.3804 441.761 32.2003C441.28 31.0202 441.05 29.7532 441.086 28.4795C441.051 27.206 441.282 25.9392 441.762 24.7593C442.242 23.5793 442.962 22.5118 443.876 21.6243C445.716 19.8663 448.162 18.8852 450.707 18.8852C453.252 18.8852 455.698 19.8663 457.538 21.6243C458.452 22.5118 459.172 23.5793 459.652 24.7593C460.133 25.9392 460.363 27.206 460.329 28.4795C460.362 29.7543 460.129 31.0221 459.646 32.2023C459.163 33.3825 458.44 34.4492 457.522 35.3348H457.538ZM446.892 32.641C447.381 33.1631 447.972 33.5792 448.628 33.8637C449.284 34.1482 449.992 34.295 450.707 34.295C451.422 34.295 452.13 34.1482 452.786 33.8637C453.442 33.5792 454.033 33.1631 454.522 32.641C455.055 32.0902 455.472 31.4381 455.749 30.7234C456.026 30.0087 456.157 29.2457 456.135 28.4795C456.159 27.7107 456.028 26.945 455.751 26.2275C455.474 25.5099 455.056 24.8552 454.522 24.3018C454.027 23.7852 453.432 23.374 452.773 23.0931C452.115 22.8122 451.407 22.6674 450.691 22.6674C449.975 22.6674 449.267 22.8122 448.609 23.0931C447.95 23.374 447.355 23.7852 446.86 24.3018C446.326 24.8552 445.908 25.5099 445.631 26.2275C445.354 26.945 445.223 27.7107 445.247 28.4795C445.227 29.2468 445.36 30.0105 445.64 30.7253C445.92 31.4401 446.34 32.0915 446.876 32.641H446.892ZM478.539 35.3348C476.702 37.0964 474.254 38.08 471.708 38.08C469.163 38.08 466.715 37.0964 464.877 35.3348C463.963 34.4478 463.242 33.3804 462.762 32.2003C462.281 31.0202 462.052 29.7532 462.087 28.4795C462.053 27.206 462.283 25.9392 462.763 24.7593C463.243 23.5793 463.963 22.5118 464.877 21.6243C466.715 19.8626 469.163 18.879 471.708 18.879C474.254 18.879 476.702 19.8626 478.539 21.6243C479.453 22.5118 480.173 23.5793 480.654 24.7593C481.134 25.9392 481.364 27.206 481.33 28.4795C481.365 29.7532 481.135 31.0202 480.655 32.2003C480.175 33.3804 479.454 34.4478 478.539 35.3348ZM467.894 32.641C468.382 33.1631 468.973 33.5792 469.629 33.8637C470.286 34.1482 470.993 34.295 471.708 34.295C472.424 34.295 473.131 34.1482 473.787 33.8637C474.443 33.5792 475.034 33.1631 475.523 32.641C476.056 32.0902 476.473 31.4381 476.75 30.7234C477.027 30.0087 477.159 29.2457 477.136 28.4795C477.16 27.7107 477.029 26.945 476.752 26.2275C476.475 25.5099 476.057 24.8552 475.523 24.3018C475.028 23.7852 474.433 23.374 473.775 23.0931C473.116 22.8122 472.408 22.6674 471.692 22.6674C470.976 22.6674 470.268 22.8122 469.61 23.0931C468.951 23.374 468.357 23.7852 467.861 24.3018C467.327 24.8552 466.909 25.5099 466.632 26.2275C466.355 26.945 466.225 27.7107 466.248 28.4795C466.228 29.2468 466.362 30.0105 466.641 30.7253C466.921 31.4401 467.342 32.0915 467.877 32.641H467.894ZM492.347 46.6903C490.413 46.7517 488.517 46.1482 486.975 44.9805C485.606 43.9512 484.528 42.5839 483.846 41.0125L487.524 39.4802C487.924 40.4192 488.55 41.2448 489.346 41.8835C490.199 42.5706 491.268 42.931 492.363 42.8997C493.057 42.9419 493.752 42.8341 494.4 42.5836C495.049 42.3331 495.636 41.9458 496.121 41.448C497.093 40.2758 497.573 38.7727 497.46 37.2542V35.867H497.315C496.7 36.5971 495.924 37.174 495.047 37.5519C494.171 37.9299 493.219 38.0986 492.266 38.0446C491.055 38.0483 489.856 37.8007 488.746 37.3176C487.635 36.8346 486.637 36.1264 485.814 35.238C484.921 34.3566 484.216 33.3032 483.742 32.1415C483.268 30.9798 483.034 29.734 483.056 28.4795C483.034 27.2177 483.266 25.9643 483.74 24.7946C484.214 23.625 484.92 22.5631 485.814 21.6727C486.635 20.7805 487.632 20.0688 488.743 19.5829C489.854 19.0969 491.054 18.8473 492.266 18.8499C493.292 18.8481 494.306 19.074 495.234 19.5112C496.037 19.8619 496.753 20.3851 497.331 21.0436H497.476V19.5112H501.476V36.6897C501.582 38.0486 501.408 39.4147 500.967 40.7044C500.526 41.9941 499.827 43.1802 498.912 44.1901C498.04 45.0242 497.01 45.6751 495.882 46.1045C494.755 46.5339 493.552 46.7331 492.347 46.6903ZM492.637 34.3024C493.326 34.3176 494.009 34.1809 494.639 33.9021C495.269 33.6234 495.83 33.2093 496.282 32.6894C497.278 31.549 497.802 30.0729 497.75 28.5602C497.81 27.0219 497.286 25.5179 496.282 24.3502C495.831 23.8295 495.27 23.4148 494.64 23.136C494.01 22.8571 493.326 22.721 492.637 22.7372C491.929 22.7227 491.227 22.859 490.576 23.1372C489.925 23.4153 489.341 23.8288 488.863 24.3502C487.796 25.476 487.216 26.9772 487.25 28.5279C487.233 29.2885 487.367 30.0449 487.644 30.7535C487.921 31.4621 488.335 32.1091 488.863 32.6572C489.339 33.1836 489.922 33.6027 490.573 33.8863C491.223 34.17 491.927 34.3119 492.637 34.3024ZM508.59 9.30097V37.4962H504.38V9.30097H508.59ZM520.139 38.0769C518.878 38.1093 517.624 37.881 516.455 37.4064C515.287 36.9318 514.229 36.221 513.348 35.3186C512.454 34.4228 511.751 33.3547 511.283 32.179C510.814 31.0034 510.589 29.7447 510.622 28.4795C510.574 27.2112 510.782 25.9463 511.234 24.7602C511.686 23.5741 512.372 22.4911 513.251 21.5759C514.08 20.7024 515.082 20.0116 516.193 19.5477C517.304 19.0839 518.499 18.8572 519.703 18.8822C520.81 18.8705 521.908 19.0845 522.929 19.5112C523.849 19.8826 524.688 20.4306 525.397 21.1242C526.006 21.7123 526.547 22.367 527.01 23.076C527.384 23.6746 527.703 24.3063 527.962 24.9632L528.397 26.06L515.493 31.3668C515.883 32.2635 516.536 33.0208 517.365 33.5391C518.195 34.0574 519.162 34.3123 520.139 34.2702C521.089 34.2728 522.024 34.029 522.853 33.5625C523.681 33.0961 524.374 32.4229 524.865 31.6087L528.091 33.7863C527.267 34.9641 526.214 35.9628 524.994 36.7219C523.543 37.6387 521.855 38.1098 520.139 38.0769ZM514.751 28.1892L523.332 24.6244C523.068 23.9959 522.595 23.4776 521.994 23.1566C521.32 22.7762 520.557 22.5814 519.784 22.5921C518.471 22.6261 517.225 23.1767 516.316 24.1244C515.772 24.645 515.35 25.2792 515.079 25.9819C514.809 26.6845 514.697 27.4382 514.751 28.1892Z" fill="#5F6368"></path><path d="M550.447 38.0768C548.656 38.1077 546.878 37.7765 545.219 37.103C543.56 36.4296 542.054 35.4278 540.791 34.1579C539.529 32.8879 538.536 31.3759 537.872 29.7127C537.209 28.0495 536.888 26.2694 536.93 24.4792C536.888 22.689 537.209 20.9088 537.872 19.2456C538.536 17.5824 539.529 16.0705 540.791 14.8005C542.054 13.5305 543.56 12.5288 545.219 11.8553C546.878 11.1819 548.656 10.8507 550.447 10.8816C552.259 10.825 554.06 11.1785 555.717 11.9159C557.373 12.6533 558.841 13.7554 560.012 15.1399L557.689 17.3981C556.83 16.3172 555.727 15.4544 554.472 14.8799C553.216 14.3053 551.843 14.0352 550.463 14.0915C549.135 14.0616 547.814 14.3005 546.581 14.7939C545.347 15.2873 544.226 16.025 543.285 16.9626C542.307 17.9466 541.542 19.1222 541.04 20.4157C540.537 21.7093 540.308 23.0927 540.366 24.4792C540.308 25.8657 540.537 27.2491 541.04 28.5426C541.542 29.8361 542.307 31.0118 543.285 31.9958C544.226 32.9334 545.347 33.6711 546.581 34.1645C547.814 34.6579 549.135 34.8968 550.463 34.8669C552.004 34.8842 553.53 34.5538 554.926 33.9003C556.323 33.2469 557.554 32.2872 558.528 31.0925L560.851 33.4152C559.634 34.8694 558.108 36.0325 556.383 36.8186C554.523 37.6771 552.495 38.1071 550.447 38.0768Z" fill="#5F6368"></path><path d="M567.093 37.4961H563.754V11.4462H567.093V37.4961Z" fill="#5F6368"></path><path d="M572.545 21.8178C574.294 20.0802 576.66 19.1051 579.126 19.1051C581.592 19.1051 583.957 20.0802 585.707 21.8178C586.563 22.7211 587.231 23.7847 587.674 24.9473C588.117 26.11 588.325 27.3488 588.288 28.5924C588.325 29.836 588.117 31.0747 587.674 32.2374C587.231 33.4 586.563 34.4636 585.707 35.3669C583.957 37.1045 581.592 38.0796 579.126 38.0796C576.66 38.0796 574.294 37.1045 572.545 35.3669C571.689 34.4636 571.021 33.4 570.578 32.2374C570.135 31.0747 569.926 29.836 569.964 28.5924C569.926 27.3488 570.135 26.11 570.578 24.9473C571.021 23.7847 571.689 22.7211 572.545 21.8178ZM575.029 33.2701C575.555 33.826 576.189 34.2689 576.892 34.5715C577.595 34.8742 578.352 35.0303 579.118 35.0303C579.883 35.0303 580.641 34.8742 581.344 34.5715C582.047 34.2689 582.681 33.826 583.207 33.2701C583.79 32.6438 584.244 31.9077 584.54 31.1047C584.836 30.3016 584.97 29.4476 584.933 28.5924C584.97 27.7372 584.836 26.8831 584.54 26.0801C584.244 25.277 583.79 24.5409 583.207 23.9147C582.681 23.3587 582.047 22.9158 581.344 22.6132C580.641 22.3105 579.883 22.1544 579.118 22.1544C578.352 22.1544 577.595 22.3105 576.892 22.6132C576.189 22.9158 575.555 23.3587 575.029 23.9147C574.445 24.5409 573.992 25.277 573.696 26.0801C573.4 26.8831 573.266 27.7372 573.303 28.5924C573.27 29.446 573.407 30.2976 573.706 31.0978C574.006 31.8981 574.461 32.6309 575.045 33.2539L575.029 33.2701Z" fill="#5F6368"></path><path d="M606.789 37.4961H603.563V35.0282H603.466C602.892 35.9655 602.079 36.7337 601.111 37.2541C600.106 37.8364 598.966 38.1425 597.804 38.1413C596.862 38.2058 595.916 38.0565 595.039 37.7046C594.162 37.3527 593.376 36.8072 592.74 36.1089C591.518 34.5634 590.904 32.6241 591.014 30.657V19.6886H594.353V30.044C594.353 33.3668 595.82 35.0282 598.756 35.0282C599.408 35.0485 600.056 34.9128 600.645 34.6322C601.234 34.3517 601.748 33.9344 602.143 33.4152C603.009 32.3184 603.47 30.9571 603.45 29.5601V19.6886H606.789V37.4961Z" fill="#5F6368"></path><path d="M618.128 38.0768C616.996 38.0805 615.876 37.8388 614.845 37.3682C613.815 36.8976 612.899 36.2094 612.16 35.3508C610.488 33.5038 609.592 31.083 609.66 28.5923C609.592 26.1017 610.488 23.6809 612.16 21.8339C612.899 20.9753 613.815 20.2871 614.845 19.8165C615.876 19.3459 616.996 19.1041 618.128 19.1079C619.397 19.0879 620.651 19.3874 621.774 19.9789C622.76 20.4754 623.596 21.2274 624.193 22.1565H624.338L624.193 19.6886V11.4462H627.532V37.4961H624.306V35.0282H624.161C623.564 35.9573 622.728 36.7092 621.741 37.2057C620.628 37.792 619.386 38.0914 618.128 38.0768ZM618.677 35.0282C619.431 35.0392 620.18 34.8895 620.872 34.5892C621.565 34.2889 622.185 33.8447 622.693 33.2862C623.827 31.9947 624.407 30.3082 624.306 28.5923C624.407 26.8765 623.827 25.19 622.693 23.8985C622.182 23.3369 621.559 22.8883 620.865 22.5813C620.171 22.2743 619.42 22.1157 618.661 22.1157C617.901 22.1157 617.15 22.2743 616.456 22.5813C615.762 22.8883 615.139 23.3369 614.628 23.8985C614.065 24.5337 613.632 25.2739 613.355 26.0766C613.078 26.8793 612.963 27.7287 613.015 28.5762C612.963 29.4237 613.078 30.2731 613.355 31.0758C613.632 31.8785 614.065 32.6187 614.628 33.2539C615.136 33.8224 615.761 34.2751 616.459 34.5812C617.158 34.8873 617.914 35.0397 618.677 35.0282Z" fill="#5F6368"></path></g><defs><radialGradient id="paint0_radial_94_3251" cx="0" cy="0" r="1" gradientUnits="userSpaceOnUse" gradientTransform="translate(102.549 41.4968) rotate(-131.496) scale(46.4787 70.5676)"><stop offset="0.0001" stop-color="#33FFCC"></stop><stop offset="1" stop-color="#0077FF"></stop></radialGradient><clipPath id="clip0_94_3251"><rect width="291.953" height="45.1639" fill="white" transform="translate(340.111 1.71716)"></rect></clipPath></defs></svg>