<svg width="28" height="28" viewBox="0 0 28 28" fill="none" xmlns="http://www.w3.org/2000/svg">
<path d="M19.5866 0.666504H8.41329C3.55996 0.666504 0.666626 3.55984 0.666626 8.41317V19.5732C0.666626 24.4398 3.55996 27.3332 8.41329 27.3332H19.5733C24.4266 27.3332 27.32 24.4398 27.32 19.5865V8.41317C27.3333 3.55984 24.44 0.666504 19.5866 0.666504ZM19.3333 14.9998H15V19.3332C15 19.8798 14.5466 20.3332 14 20.3332C13.4533 20.3332 13 19.8798 13 19.3332V14.9998H8.66663C8.11996 14.9998 7.66663 14.5465 7.66663 13.9998C7.66663 13.4532 8.11996 12.9998 8.66663 12.9998H13V8.6665C13 8.11984 13.4533 7.6665 14 7.6665C14.5466 7.6665 15 8.11984 15 8.6665V12.9998H19.3333C19.88 12.9998 20.3333 13.4532 20.3333 13.9998C20.3333 14.5465 19.88 14.9998 19.3333 14.9998Z" fill="#CCCECD"/>
</svg>
