<svg width="16" height="16" viewBox="0 0 16 16" fill="none" xmlns="http://www.w3.org/2000/svg">
<path d="M7.76668 1.56667L4.24001 5.09333C4.10668 5.22667 4.10668 5.43333 4.24001 5.56667L5.10001 6.42667C5.23334 6.56 5.44001 6.56 5.57335 6.42667L7.76668 4.23333C7.90001 4.1 8.10668 4.1 8.24001 4.23333L10.4333 6.42667C10.5667 6.56 10.7733 6.56 10.9067 6.42667L11.7667 5.56667C11.9 5.43333 11.9 5.22667 11.7667 5.09333L8.24001 1.56667C8.10668 1.44 7.89334 1.44 7.76668 1.56667Z" fill="#F5820D"/>
<path d="M7.76668 14.4333L4.24001 10.9067C4.10668 10.7733 4.10668 10.5667 4.24001 10.4333L5.10001 9.57333C5.23334 9.44 5.44001 9.44 5.57335 9.57333L7.76668 11.7667C7.90001 11.9 8.10668 11.9 8.24001 11.7667L10.4333 9.57333C10.5667 9.44 10.7733 9.44 10.9067 9.57333L11.7667 10.4333C11.9 10.5667 11.9 10.7733 11.7667 10.9067L8.24001 14.4333C8.10668 14.56 7.89334 14.56 7.76668 14.4333Z" fill="#F5820D"/>
<path d="M13.4 6.73333L14.4267 7.76C14.56 7.89333 14.56 8.1 14.4267 8.23333L13.4 9.26C13.2667 9.39333 13.06 9.39333 12.9267 9.26L11.9 8.23333C11.7667 8.1 11.7667 7.89333 11.9 7.76L12.9267 6.73333C13.06 6.60667 13.2733 6.60667 13.4 6.73333Z" fill="#F5820D"/>
<path d="M3.06667 6.73333L4.09334 7.76C4.22667 7.89333 4.22667 8.1 4.09334 8.23333L3.06667 9.26C2.93334 9.39333 2.72667 9.39333 2.59334 9.26L1.56667 8.23333C1.43334 8.1 1.43334 7.89333 1.56667 7.76L2.59334 6.73333C2.72667 6.60667 2.94001 6.60667 3.06667 6.73333Z" fill="#F5820D"/>
<path d="M8.23332 6.58667L9.41331 7.76667C9.54665 7.9 9.54665 8.10667 9.41331 8.24L8.23332 9.42C8.09999 9.55333 7.89332 9.55333 7.75998 9.42L6.57998 8.24C6.44665 8.10667 6.44665 7.9 6.57998 7.76667L7.75998 6.58667C7.89332 6.45333 8.10665 6.45333 8.23332 6.58667Z" fill="#F5820D"/>
</svg>
