<svg width="32" height="32" viewBox="0 0 32 32" fill="none" xmlns="http://www.w3.org/2000/svg">
<path d="M23.3866 11.7468C25.5663 11.7468 27.3333 9.97987 27.3333 7.80018C27.3333 5.6205 25.5663 3.85352 23.3866 3.85352C21.2069 3.85352 19.4399 5.6205 19.4399 7.80018C19.4399 9.97987 21.2069 11.7468 23.3866 11.7468Z" fill="#CCCECD"/>
<path d="M8.61329 11.7468C10.793 11.7468 12.56 9.97987 12.56 7.80018C12.56 5.6205 10.793 3.85352 8.61329 3.85352C6.43361 3.85352 4.66663 5.6205 4.66663 7.80018C4.66663 9.97987 6.43361 11.7468 8.61329 11.7468Z" fill="#CCCECD"/>
<path d="M23.3866 28.1463C25.5663 28.1463 27.3333 26.3793 27.3333 24.1996C27.3333 22.0199 25.5663 20.2529 23.3866 20.2529C21.2069 20.2529 19.4399 22.0199 19.4399 24.1996C19.4399 26.3793 21.2069 28.1463 23.3866 28.1463Z" fill="#CCCECD"/>
<path d="M8.61329 28.1463C10.793 28.1463 12.56 26.3793 12.56 24.1996C12.56 22.0199 10.793 20.2529 8.61329 20.2529C6.43361 20.2529 4.66663 22.0199 4.66663 24.1996C4.66663 26.3793 6.43361 28.1463 8.61329 28.1463Z" fill="#CCCECD"/>
</svg>
