<svg width="32" height="32" viewBox="0 0 32 32" fill="none" xmlns="http://www.w3.org/2000/svg">
<path d="M23.3867 11.08C25.1982 11.08 26.6667 9.61149 26.6667 7.8C26.6667 5.98851 25.1982 4.52 23.3867 4.52C21.5752 4.52 20.1067 5.98851 20.1067 7.8C20.1067 9.61149 21.5752 11.08 23.3867 11.08Z" stroke="currentColor" stroke-width="1.5" stroke-miterlimit="10" stroke-linecap="round" stroke-linejoin="round"/>
<path d="M11.8934 7.8C11.8934 5.98667 10.4267 4.52 8.61338 4.52C6.80005 4.52 5.33337 5.98667 5.33337 7.8C5.33337 9.61333 6.80005 11.08 8.61338 11.08" stroke="currentColor" stroke-width="1.5" stroke-miterlimit="10" stroke-linecap="round" stroke-linejoin="round"/>
<path d="M23.3867 27.4933C25.2 27.4933 26.6667 26.0267 26.6667 24.2133C26.6667 22.4 25.2 20.9333 23.3867 20.9333C21.5733 20.9333 20.1067 22.4 20.1067 24.2133" stroke="currentColor" stroke-width="1.5" stroke-miterlimit="10" stroke-linecap="round" stroke-linejoin="round"/>
<path d="M8.61338 27.48C10.4249 27.48 11.8934 26.0115 11.8934 24.2C11.8934 22.3885 10.4249 20.92 8.61338 20.92C6.80189 20.92 5.33337 22.3885 5.33337 24.2C5.33337 26.0115 6.80189 27.48 8.61338 27.48Z" stroke="currentColor" stroke-width="1.5" stroke-miterlimit="10" stroke-linecap="round" stroke-linejoin="round"/>
</svg>
