<svg width="48" height="48" viewBox="0 0 48 48" fill="none" xmlns="http://www.w3.org/2000/svg">
<path d="M10 20C7.8 20 6 21.8 6 24C6 26.2 7.8 28 10 28C12.2 28 14 26.2 14 24C14 21.8 12.2 20 10 20Z" stroke="#CCCECD" stroke-width="1.5"/>
<path d="M38 20C35.8 20 34 21.8 34 24C34 26.2 35.8 28 38 28C40.2 28 42 26.2 42 24C42 21.8 40.2 20 38 20Z" stroke="#CCCECD" stroke-width="1.5"/>
<path d="M20 24C20 26.2 21.8 28 24 28C26.2 28 28 26.2 28 24C28 21.8 26.2 20 24 20" stroke="#CCCECD" stroke-width="1.5" stroke-linecap="round" stroke-linejoin="round"/>
</svg>
