<svg width="359" height="360" viewBox="0 0 359 360" fill="none" xmlns="http://www.w3.org/2000/svg">
<rect width="359" height="360" rx="179.5" fill="#2B3530"/>
<path d="M209.5 167V173C209.5 188 203.5 194 188.5 194H170.5C155.5 194 149.5 188 149.5 173V168.44" stroke="#CCCECD" stroke-width="4" stroke-linecap="round" stroke-linejoin="round"/>
<path d="M176.5 134H170.5C155.5 134 149.5 140 149.5 155" stroke="#CCCECD" stroke-width="4" stroke-linecap="round" stroke-linejoin="round"/>
<path d="M203.29 155.03L206.44 151.88C210.52 147.8 212.44 143.06 206.44 137.06C200.44 131.06 195.7 132.98 191.62 137.06L167.98 160.7C167.08 161.6 166.18 163.37 166 164.66L164.71 173.69C164.23 176.96 166.54 179.24 169.81 178.79L178.84 177.5C180.1 177.32 181.87 176.42 182.8 175.52L192.34 165.98L194.53 163.79" stroke="#CCCECD" stroke-width="4" stroke-miterlimit="10" stroke-linecap="round" stroke-linejoin="round"/>
<path d="M188.23 140.45C190.24 147.62 195.85 153.23 203.05 155.27" stroke="#CCCECD" stroke-width="4" stroke-miterlimit="10" stroke-linecap="round" stroke-linejoin="round"/>
<path d="M150.452 225.983V228H142.234V216.164H150.302V218.181H144.534V221.032H149.518V222.899H144.534V225.983H150.452ZM150.666 223.632C150.666 222.788 150.832 222.027 151.166 221.349C151.499 220.66 151.96 220.115 152.549 219.715C153.138 219.315 153.811 219.115 154.566 219.115C155.211 219.115 155.789 219.276 156.3 219.598C156.822 219.909 157.228 220.31 157.517 220.799V215.831H159.751V225.499C159.751 225.733 159.79 225.9 159.867 226C159.945 226.1 160.079 226.161 160.268 226.183V228C159.879 228.078 159.562 228.117 159.317 228.117C158.917 228.117 158.584 228.017 158.317 227.817C158.062 227.617 157.917 227.355 157.884 227.033L157.85 226.483C157.528 227.028 157.089 227.444 156.533 227.733C155.989 228.022 155.417 228.167 154.816 228.167C154.216 228.167 153.661 228.05 153.149 227.817C152.649 227.583 152.21 227.261 151.833 226.85C151.466 226.439 151.177 225.961 150.966 225.416C150.766 224.86 150.666 224.266 150.666 223.632ZM157.517 224.799V222.716C157.406 222.393 157.228 222.104 156.984 221.849C156.739 221.593 156.467 221.393 156.167 221.249C155.867 221.093 155.567 221.015 155.267 221.015C154.922 221.015 154.611 221.088 154.333 221.232C154.055 221.376 153.811 221.571 153.6 221.815C153.399 222.06 153.244 222.343 153.133 222.666C153.033 222.988 152.983 223.327 152.983 223.682C152.983 224.038 153.038 224.377 153.149 224.699C153.272 225.011 153.444 225.283 153.666 225.516C153.888 225.75 154.144 225.933 154.433 226.066C154.733 226.2 155.055 226.266 155.4 226.266C155.611 226.266 155.822 226.233 156.033 226.166C156.256 226.089 156.461 225.988 156.65 225.866C156.85 225.733 157.022 225.577 157.167 225.399C157.322 225.211 157.439 225.011 157.517 224.799ZM161.277 228V219.265H163.51V228H161.277ZM161.277 218.048V215.831H163.51V218.048H161.277ZM170.093 227.55C169.904 227.628 169.676 227.717 169.41 227.817C169.143 227.917 168.854 227.994 168.543 228.05C168.243 228.117 167.937 228.15 167.626 228.15C167.215 228.15 166.837 228.078 166.492 227.933C166.148 227.789 165.87 227.561 165.659 227.25C165.459 226.928 165.359 226.511 165.359 226V220.982H164.209V219.265H165.359V216.431H167.593V219.265H169.426V220.982H167.593V225.249C167.604 225.55 167.687 225.766 167.843 225.9C167.998 226.033 168.193 226.1 168.426 226.1C168.659 226.1 168.887 226.061 169.11 225.983C169.332 225.905 169.51 225.838 169.643 225.783L170.093 227.55ZM174.144 228V216.164H179.162C179.706 216.164 180.207 216.275 180.662 216.498C181.118 216.72 181.512 217.02 181.846 217.398C182.19 217.776 182.457 218.198 182.646 218.665C182.835 219.132 182.929 219.609 182.929 220.098C182.929 220.765 182.774 221.399 182.463 221.999C182.151 222.599 181.724 223.088 181.179 223.466C180.634 223.844 179.99 224.033 179.245 224.033H176.445V228H174.144ZM176.445 222.015H179.112C179.39 222.015 179.64 221.938 179.862 221.782C180.084 221.627 180.262 221.404 180.396 221.115C180.529 220.815 180.596 220.476 180.596 220.098C180.596 219.687 180.518 219.337 180.362 219.048C180.218 218.759 180.023 218.543 179.779 218.398C179.545 218.254 179.29 218.181 179.012 218.181H176.445V222.015ZM191.765 228H189.531V223.099C189.531 222.421 189.398 221.915 189.131 221.582C188.876 221.249 188.52 221.082 188.064 221.082C187.798 221.082 187.514 221.16 187.214 221.315C186.914 221.471 186.642 221.688 186.397 221.965C186.164 222.232 185.992 222.543 185.881 222.899V228H183.647V215.831H185.881V220.882C186.203 220.326 186.642 219.893 187.198 219.582C187.753 219.27 188.359 219.115 189.015 219.115C189.581 219.115 190.043 219.215 190.398 219.415C190.754 219.604 191.032 219.865 191.232 220.198C191.432 220.521 191.571 220.887 191.649 221.299C191.726 221.699 191.765 222.115 191.765 222.549V228ZM197.075 228.167C196.364 228.167 195.725 228.05 195.158 227.817C194.591 227.572 194.108 227.239 193.708 226.816C193.319 226.394 193.019 225.911 192.807 225.366C192.596 224.822 192.491 224.249 192.491 223.649C192.491 223.038 192.596 222.46 192.807 221.915C193.019 221.371 193.319 220.887 193.708 220.465C194.108 220.043 194.591 219.715 195.158 219.482C195.725 219.237 196.364 219.115 197.075 219.115C197.786 219.115 198.42 219.237 198.975 219.482C199.542 219.715 200.025 220.043 200.426 220.465C200.826 220.887 201.126 221.371 201.326 221.915C201.537 222.46 201.642 223.038 201.642 223.649C201.642 224.249 201.537 224.822 201.326 225.366C201.126 225.911 200.826 226.394 200.426 226.816C200.037 227.239 199.559 227.572 198.992 227.817C198.425 228.05 197.786 228.167 197.075 228.167ZM194.791 223.649C194.791 224.16 194.891 224.616 195.091 225.016C195.291 225.405 195.563 225.711 195.908 225.933C196.252 226.155 196.641 226.266 197.075 226.266C197.497 226.266 197.881 226.155 198.225 225.933C198.57 225.7 198.842 225.388 199.042 224.999C199.253 224.599 199.359 224.144 199.359 223.632C199.359 223.132 199.253 222.682 199.042 222.282C198.842 221.882 198.57 221.571 198.225 221.349C197.881 221.126 197.497 221.015 197.075 221.015C196.641 221.015 196.252 221.132 195.908 221.365C195.563 221.588 195.291 221.899 195.091 222.299C194.891 222.688 194.791 223.138 194.791 223.649ZM207.588 227.55C207.399 227.628 207.171 227.717 206.904 227.817C206.637 227.917 206.348 227.994 206.037 228.05C205.737 228.117 205.432 228.15 205.12 228.15C204.709 228.15 204.331 228.078 203.987 227.933C203.642 227.789 203.364 227.561 203.153 227.25C202.953 226.928 202.853 226.511 202.853 226V220.982H201.703V219.265H202.853V216.431H205.087V219.265H206.921V220.982H205.087V225.249C205.098 225.55 205.181 225.766 205.337 225.9C205.493 226.033 205.687 226.1 205.921 226.1C206.154 226.1 206.382 226.061 206.604 225.983C206.826 225.905 207.004 225.838 207.137 225.783L207.588 227.55ZM212.021 228.167C211.309 228.167 210.67 228.05 210.104 227.817C209.537 227.572 209.053 227.239 208.653 226.816C208.264 226.394 207.964 225.911 207.753 225.366C207.542 224.822 207.436 224.249 207.436 223.649C207.436 223.038 207.542 222.46 207.753 221.915C207.964 221.371 208.264 220.887 208.653 220.465C209.053 220.043 209.537 219.715 210.104 219.482C210.67 219.237 211.309 219.115 212.021 219.115C212.732 219.115 213.365 219.237 213.921 219.482C214.488 219.715 214.971 220.043 215.371 220.465C215.771 220.887 216.071 221.371 216.271 221.915C216.483 222.46 216.588 223.038 216.588 223.649C216.588 224.249 216.483 224.822 216.271 225.366C216.071 225.911 215.771 226.394 215.371 226.816C214.982 227.239 214.504 227.572 213.938 227.817C213.371 228.05 212.732 228.167 212.021 228.167ZM209.737 223.649C209.737 224.16 209.837 224.616 210.037 225.016C210.237 225.405 210.509 225.711 210.854 225.933C211.198 226.155 211.587 226.266 212.021 226.266C212.443 226.266 212.826 226.155 213.171 225.933C213.515 225.7 213.788 225.388 213.988 224.999C214.199 224.599 214.304 224.144 214.304 223.632C214.304 223.132 214.199 222.682 213.988 222.282C213.788 221.882 213.515 221.571 213.171 221.349C212.826 221.126 212.443 221.015 212.021 221.015C211.587 221.015 211.198 221.132 210.854 221.365C210.509 221.588 210.237 221.899 210.037 222.299C209.837 222.688 209.737 223.138 209.737 223.649Z" fill="white"/>
</svg>
