<svg width="73" height="72" viewBox="0 0 73 72" fill="none" xmlns="http://www.w3.org/2000/svg">
<path d="M66.5 39V45C66.5 60 60.5 66 45.5 66H27.5C12.5 66 6.5 60 6.5 45V40.44" stroke="#CCCECD" stroke-width="4" stroke-linecap="round" stroke-linejoin="round"/>
<path d="M33.5 6H27.5C12.5 6 6.5 12 6.5 27" stroke="#CCCECD" stroke-width="4" stroke-linecap="round" stroke-linejoin="round"/>
<path d="M60.2899 27.03L63.4399 23.88C67.5199 19.8 69.4399 15.06 63.4399 9.06003C57.4399 3.06003 52.6999 4.98003 48.6199 9.06003L24.9799 32.7C24.0799 33.6 23.1799 35.37 22.9999 36.66L21.7099 45.69C21.2299 48.96 23.5399 51.24 26.8099 50.79L35.8399 49.5C37.0999 49.32 38.8699 48.42 39.7999 47.52L49.3399 37.98L51.5299 35.79" stroke="#CCCECD" stroke-width="4" stroke-miterlimit="10" stroke-linecap="round" stroke-linejoin="round"/>
<path d="M45.23 12.45C47.24 19.62 52.85 25.23 60.05 27.27" stroke="#CCCECD" stroke-width="4" stroke-miterlimit="10" stroke-linecap="round" stroke-linejoin="round"/>
</svg>
