<svg width="32" height="32" viewBox="0 0 32 32" fill="none" xmlns="http://www.w3.org/2000/svg">
<path d="M4.47995 25.6533C4.79995 27.5466 6.61327 29.0799 8.53327 29.0799H23.4666C25.3733 29.0799 27.1999 27.5333 27.5199 25.6533L29.2933 15.04C29.5066 13.7333 28.84 11.9866 27.8133 11.1599L18.5733 3.7733C17.1466 2.62663 14.84 2.62662 13.4266 3.75996L4.18661 11.1599C3.14661 11.9866 2.47995 13.7333 2.70661 15.04L3.61329 20.4933" stroke="currentColor" stroke-width="1.5" stroke-linecap="round" stroke-linejoin="round"/>
<path d="M16.0001 14C14.1601 14 12.6667 15.4933 12.6667 17.3333C12.6667 19.1733 14.1601 20.6667 16.0001 20.6667C17.8401 20.6667 19.3334 19.1733 19.3334 17.3333" stroke="currentColor" stroke-width="1.5" stroke-linecap="round" stroke-linejoin="round"/>
</svg>
