<svg width="360" height="360" viewBox="0 0 360 360" fill="none" xmlns="http://www.w3.org/2000/svg">
<rect width="360" height="360" rx="180" fill="#2B3530"/>
<path d="M225.932 144.763V203.147C225.932 213.377 217.613 221.695 207.383 221.695C197.205 221.695 188.835 213.377 188.835 203.147C188.835 192.968 197.205 184.65 207.383 184.65C211.723 184.65 215.598 186.148 218.75 188.628V157.887L171.165 171.423V213.118C171.165 223.348 162.795 231.667 152.617 231.667C142.387 231.667 134.068 223.348 134.068 213.118C134.068 202.94 142.387 194.622 152.617 194.622C156.905 194.622 160.78 196.12 163.932 198.548V152.875C163.932 145.28 168.53 139.39 175.815 137.427L205.678 129.263C211.723 127.61 216.838 128.178 220.455 130.968C224.123 133.707 225.932 138.357 225.932 144.763Z" fill="#565D5A"/>
</svg>
