<svg width="92" height="105" viewBox="0 0 92 105" fill="none" xmlns="http://www.w3.org/2000/svg">
<path d="M91.9317 17.2631V75.6465C91.9317 85.8764 83.6133 94.1948 73.3833 94.1948C63.205 94.1948 54.835 85.8764 54.835 75.6465C54.835 65.4681 63.205 57.1498 73.3833 57.1498C77.7233 57.1498 81.5983 58.6481 84.75 61.1281V30.3865L37.165 43.9231V85.6181C37.165 95.8481 28.795 104.166 18.6167 104.166C8.38666 104.166 0.0683289 95.8481 0.0683289 85.6181C0.0683289 75.4398 8.38666 67.1215 18.6167 67.1215C22.905 67.1215 26.78 68.6198 29.9317 71.0481V25.3748C29.9317 17.7798 34.53 11.8898 41.815 9.92646L71.6783 1.76312C77.7233 0.10979 82.8383 0.678122 86.455 3.46812C90.1233 6.20646 91.9317 10.8565 91.9317 17.2631Z" fill="#565D5A"/>
</svg>
