<svg width="24" height="24" viewBox="0 0 24 24" fill="none" xmlns="http://www.w3.org/2000/svg">
<path d="M17.49 9.59965L5.6 16.7696C4.9 17.1896 4 16.6896 4 15.8696V7.86965C4 4.37965 7.77 2.19965 10.8 3.93965L15.39 6.57965L17.48 7.77965C18.17 8.18965 18.18 9.18965 17.49 9.59965Z" fill="#010C07"/>
<path d="M18.09 15.4596L14.04 17.7996L9.99999 20.1296C8.54999 20.9596 6.90999 20.7896 5.71999 19.9496C5.13999 19.5496 5.20999 18.6596 5.81999 18.2996L18.53 10.6796C19.13 10.3196 19.92 10.6596 20.03 11.3496C20.28 12.8996 19.64 14.5696 18.09 15.4596Z" fill="#010C07"/>
</svg>
