<svg width="32" height="32" viewBox="0 0 32 32" fill="none" xmlns="http://www.w3.org/2000/svg">
<path d="M12.76 16.6133L8.69336 20.68" stroke="currentColor" stroke-width="1.5" stroke-miterlimit="10" stroke-linecap="round" stroke-linejoin="round"/>
<path d="M8.73328 16.6533L12.7999 20.72" stroke="currentColor" stroke-width="1.5" stroke-miterlimit="10" stroke-linecap="round" stroke-linejoin="round"/>
<path d="M18.04 18.6667H18.0534" stroke="currentColor" stroke-width="2" stroke-miterlimit="10" stroke-linecap="round" stroke-linejoin="round"/>
<path d="M23.2933 18.6667H23.3067" stroke="currentColor" stroke-width="2" stroke-miterlimit="10" stroke-linecap="round" stroke-linejoin="round"/>
<path d="M20.6666 21.3067V21.28" stroke="currentColor" stroke-width="2" stroke-miterlimit="10" stroke-linecap="round" stroke-linejoin="round"/>
<path d="M20.6666 16.0533V16.0267" stroke="currentColor" stroke-width="2" stroke-miterlimit="10" stroke-linecap="round" stroke-linejoin="round"/>
<path d="M2.66663 20C2.66663 26.6667 5.33329 29.3333 12 29.3333H20C26.6666 29.3333 29.3333 26.6667 29.3333 20V17.3333C29.3333 10.6667 26.6666 8 20 8H12C6.99996 8 4.25329 9.49333 3.18663 13.0667" stroke="currentColor" stroke-width="1.5" stroke-linecap="round" stroke-linejoin="round"/>
<path d="M17.3467 2.66666L17.3333 4.01333C17.32 4.74666 16.7333 5.33333 16 5.33333H15.96C15.2267 5.33333 14.64 5.93333 14.64 6.66666C14.64 7.4 15.24 8 15.9733 8H17.3067" stroke="currentColor" stroke-width="1.5" stroke-linecap="round" stroke-linejoin="round"/>
</svg>
