<svg width="32" height="32" viewBox="0 0 32 32" fill="none" xmlns="http://www.w3.org/2000/svg">
<path d="M27.8133 11.16L18.5733 3.77333C17.1466 2.62666 14.8399 2.62666 13.4266 3.75999L4.18661 11.16C3.14661 11.9867 2.47995 13.7333 2.70661 15.04L4.47995 25.6533C4.79995 27.5467 6.61328 29.08 8.53328 29.08H23.4666C25.3733 29.08 27.1999 27.5333 27.5199 25.6533L29.2933 15.04C29.5066 13.7333 28.8399 11.9867 27.8133 11.16ZM15.9999 20.6667C14.1599 20.6667 12.6666 19.1733 12.6666 17.3333C12.6666 15.4933 14.1599 14 15.9999 14C17.8399 14 19.3333 15.4933 19.3333 17.3333C19.3333 19.1733 17.8399 20.6667 15.9999 20.6667Z" fill="#CCCECD"/>
</svg>
