<svg width="138" height="48" viewBox="0 0 138 48" fill="none" xmlns="http://www.w3.org/2000/svg">
<path d="M47.9825 24C47.9825 37.2548 37.2413 48 23.9913 48C10.7413 48 0 37.2548 0 24C0 10.7452 10.7413 0 23.9913 0C37.2413 0 47.9825 10.7452 47.9825 24Z" fill="url(#paint0_linear_157_1667)"/>
<path fill-rule="evenodd" clip-rule="evenodd" d="M32.6881 12C31.4183 12 30.389 13.0294 30.389 14.2992V33.7008C30.389 34.9706 31.4183 36 32.6881 36C33.9579 36 34.9873 34.9706 34.9873 33.7008V14.2992C34.9873 13.0294 33.9579 12 32.6881 12ZM12.9951 14.2992C12.9951 13.0294 14.0245 12 15.2943 12C16.5641 12 17.5934 13.0294 17.5934 14.2992V33.7009C17.5934 34.9707 16.5641 36 15.2943 36C14.0245 36 12.9951 34.9707 12.9951 33.7009V14.2992ZM21.5921 20.3992C21.5921 19.0742 22.6662 18 23.9912 18C25.3162 18 26.3904 19.0742 26.3904 20.3992V27.6009C26.3904 28.9259 25.3162 30 23.9912 30C22.6662 30 21.5921 28.9259 21.5921 27.6009V20.3992Z" fill="#010C07"/>
<path d="M72.7889 34V20.5792L67.5473 30.5728H65.3297L60.0881 20.5792V34H56.1137V13.552H60.3761L66.4241 25.1872L72.5297 13.552H76.7633V34H72.7889ZM79.3621 28.3552V18.9088H83.2213V27.52C83.2213 28.672 83.4325 29.5456 83.8549 30.1408C84.2773 30.7168 84.9013 31.0048 85.7269 31.0048C86.2261 31.0048 86.7157 30.9088 87.1957 30.7168C87.6949 30.5056 88.1461 30.1984 88.5493 29.7952C88.9717 29.392 89.3269 28.8832 89.6149 28.2688V18.9088H93.4741V29.68C93.4741 30.0832 93.5413 30.3712 93.6757 30.544C93.8293 30.7168 94.0693 30.8224 94.3957 30.8608V34C94.0117 34.0576 93.6853 34.096 93.4165 34.1152C93.1669 34.1536 92.9365 34.1728 92.7253 34.1728C92.0341 34.1728 91.4677 34.0192 91.0261 33.712C90.6037 33.3856 90.3541 32.944 90.2773 32.3872L90.1909 31.1776C89.5189 32.1952 88.6549 32.9728 87.5989 33.5104C86.5429 34.0288 85.3813 34.288 84.1141 34.288C82.5589 34.288 81.3781 33.7888 80.5717 32.7904C79.7653 31.7728 79.3621 30.2944 79.3621 28.3552ZM98.634 18.9088L101.802 23.632L102.032 24.1504L102.32 23.632L105.46 18.9088H109.52L104.279 26.4256L109.607 34H105.546L102.292 29.3056L102.032 28.816L101.802 29.3056L98.5764 34H94.5156L99.8436 26.512L94.602 18.9088H98.634ZM110.305 34V18.9088H114.164V34H110.305ZM110.305 16.8064V12.976H114.164V16.8064H110.305ZM116.868 34V13.552H130.606V17.0368H120.843V22.3072H128.964V25.5328H120.843V34H116.868ZM131.879 34V18.9088H135.739V34H131.879ZM131.879 16.8064V12.976H135.739V16.8064H131.879Z" fill="#CCCECD"/>
<defs>
<linearGradient id="paint0_linear_157_1667" x1="6.79753" y1="-1.87755e-07" x2="40.8001" y2="41.9879" gradientUnits="userSpaceOnUse">
<stop stop-color="#FFA611"/>
<stop offset="1" stop-color="#F5820D"/>
</linearGradient>
</defs>
</svg>
